<svg width="3579" height="3046" viewBox="0 0 3579 3046" fill="none" xmlns="http://www.w3.org/2000/svg">
<g clip-path="url(#clip0_204_56)">
<path d="M1855.53 451.936C1858.26 459.788 1862.68 466.945 1868.47 472.905C1874.27 478.864 1881.3 483.481 1889.07 486.43C1896.85 489.378 1905.17 490.587 1913.46 489.971C1921.75 489.354 1929.8 486.928 1937.05 482.863L2430.21 641.034L2593.43 512.995L1957.32 401.626C1949.68 389.899 1938.01 381.38 1924.51 377.685C1911.01 373.989 1896.62 375.374 1884.08 381.575C1871.53 387.776 1861.7 398.364 1856.43 411.332C1851.17 424.3 1850.85 438.748 1855.53 451.936V451.936Z" fill="#FFB6B6"/>
<path d="M2768.96 663.313C2768.96 663.313 2764.49 652.356 2705.48 676.196C2632.23 705.788 2242.29 686.005 2220.68 579.694C2213.78 586.814 2204.71 591.437 2194.89 592.835C2185.07 594.232 2175.07 592.324 2166.46 587.412L2227.42 453.628C2259.15 443.486 2276.39 435.982 2278.44 448.903L2373.85 443.291L2760.23 508.326L2770.91 641.685L2768.96 663.313Z" fill="#F2F2F2"/>
<path d="M2647.45 529.184L2839.33 512.575L3019.22 594.798L3120.23 1992.02L2723.82 1808.71L2553.74 1855.76L2647.45 529.184Z" fill="#F2F2F2"/>
<path d="M3119.53 2967.7L3046.75 2967.69L3012.12 2686.98L3119.54 2686.99L3119.53 2967.7Z" fill="#FFB6B6"/>
<path d="M3138.09 3038.24L2903.4 3038.23V3035.26C2903.41 3011.04 2913.03 2987.81 2930.16 2970.68C2947.29 2953.55 2970.52 2943.93 2994.75 2943.93H2994.76L3037.62 2911.41L3117.61 2943.93L3138.09 2943.94L3138.09 3038.24Z" fill="#2F2E41"/>
<path d="M2837.48 2921.84L2766.48 2937.86L2670.86 2671.68L2775.65 2648.02L2837.48 2921.84Z" fill="#FFB6B6"/>
<path d="M2871.12 2986.56L2642.2 3038.24L2641.55 3035.35C2636.21 3011.72 2640.48 2986.94 2653.42 2966.46C2666.36 2945.98 2686.9 2931.47 2710.53 2926.13L2710.53 2926.13L2745.18 2884.97L2830.37 2899.08L2850.35 2894.57L2871.12 2986.56Z" fill="#2F2E41"/>
<path d="M3211.71 1251.59C3245.83 1354.5 3242.23 1466.21 3203.51 1586.1L3186.96 2261.1C3214.32 2291.21 3218.5 2560.64 3176.35 2648.55C3120.07 2765.95 3171.83 2781.64 3132.04 2859.53H3016.64L2963.3 2506.68L2959.5 2220.68C2944.17 2184.39 2956.75 2056.69 2956.75 2056.69L2952.32 1791.88L2744.23 2255.76C2838.51 2336.44 2830.02 2597.07 2831.58 2712.67L2862.49 2849.08L2720.45 2861.78L2657.77 2676.79L2587.3 2562.79C2551.38 2360.81 2540.74 2212.52 2571.35 2151.95L2780.24 1374.86L3211.71 1251.59Z" fill="#2F2E41"/>
<path d="M3226.5 1217.25L3207.47 1179.2C3184.18 1034.93 3161.17 900.375 3192.43 779.338C3194.4 673.676 3161.73 574.411 3071.05 520.206L3030.13 495.74L3009.43 443.218L2818.73 447.875L2818.17 516.727L2749.88 625.643V626.092L2754.14 1218.76L2773 1279.93L2744.54 1351.08L2759.64 1396.47L3135.58 1336.38L3179.3 1329.36C3184.35 1327.75 3189.22 1325.62 3193.84 1323.02C3209.52 1314.31 3221.82 1300.57 3228.74 1284.02C3229.13 1283.07 3229.47 1282.17 3229.81 1281.22C3232.76 1273.49 3234.46 1265.35 3234.86 1257.09C3235.54 1243.31 3232.66 1229.59 3226.5 1217.25V1217.25Z" fill="#3F3D56"/>
<path opacity="0.2" d="M3234.86 1257.09C3234.46 1265.35 3232.76 1273.49 3229.81 1281.22L3193.83 1323.02C3189.22 1325.62 3184.35 1327.75 3179.3 1329.36L3135.58 1336.38L3198.83 1217.47L3059.82 913.169L3234.86 1257.09Z" fill="black"/>
<path d="M281.312 2486.54C237.142 2486.99 193.007 2483.94 149.32 2477.41C108.643 2470.53 88.0178 2460.75 88.0178 2448.36L88.0328 2448.14L163.916 1870.45L125.698 1760.9C124.093 1756.3 123.62 1751.39 124.317 1746.56C125.014 1741.74 126.862 1737.16 129.704 1733.2C132.546 1729.25 136.298 1726.03 140.645 1723.83C144.991 1721.63 149.803 1720.51 154.675 1720.56L406.002 1723.18C410.784 1723.23 415.487 1724.41 419.727 1726.62C423.968 1728.83 427.625 1732.01 430.401 1735.91C433.177 1739.8 434.994 1744.3 435.703 1749.03C436.411 1753.76 435.992 1758.59 434.48 1763.12L398.706 1870.44L474.59 2448.14C474.606 2478.5 353.104 2486.54 281.312 2486.54Z" fill="#F2F2F2"/>
<path d="M260.833 2405.22H138.067V2412.12H260.833V2405.22Z" fill="#CCCCCC"/>
<path d="M260.833 2363.81H138.067V2370.71H260.833V2363.81Z" fill="#CCCCCC"/>
<path d="M260.833 2322.39H138.067V2329.29H260.833V2322.39Z" fill="#CCCCCC"/>
<path d="M260.833 2280.97H138.067V2287.88H260.833V2280.97Z" fill="#CCCCCC"/>
<path d="M260.833 2239.56H138.067V2246.46H260.833V2239.56Z" fill="#CCCCCC"/>
<path d="M1385.85 2486.54C1341.68 2486.99 1297.54 2483.94 1253.86 2477.41C1213.18 2470.53 1192.55 2460.75 1192.55 2448.36L1192.57 2448.14L1268.45 1870.45L1230.23 1760.9C1228.63 1756.3 1228.16 1751.39 1228.85 1746.56C1229.55 1741.74 1231.4 1737.16 1234.24 1733.2C1237.08 1729.25 1240.84 1726.03 1245.18 1723.83C1249.53 1721.63 1254.34 1720.51 1259.21 1720.56L1510.54 1723.18C1515.32 1723.23 1520.02 1724.41 1524.26 1726.62C1528.5 1728.83 1532.16 1732.01 1534.94 1735.91C1537.71 1739.8 1539.53 1744.3 1540.24 1749.03C1540.95 1753.76 1540.53 1758.59 1539.02 1763.12L1503.24 1870.44L1579.13 2448.14C1579.14 2478.5 1457.64 2486.54 1385.85 2486.54Z" fill="#F2F2F2"/>
<path d="M1365.37 2405.22H1242.6V2412.12H1365.37V2405.22Z" fill="#CCCCCC"/>
<path d="M1365.37 2363.81H1242.6V2370.71H1365.37V2363.81Z" fill="#CCCCCC"/>
<path d="M1365.37 2322.39H1242.6V2329.29H1365.37V2322.39Z" fill="#CCCCCC"/>
<path d="M1365.37 2280.97H1242.6V2287.88H1365.37V2280.97Z" fill="#CCCCCC"/>
<path d="M1365.37 2239.56H1242.6V2246.46H1365.37V2239.56Z" fill="#CCCCCC"/>
<path d="M868.097 2486.54C823.927 2486.99 779.792 2483.94 736.106 2477.41C695.429 2470.53 674.803 2460.75 674.803 2448.36L674.818 2448.14L750.701 1870.45L712.483 1760.9C710.879 1756.3 710.405 1751.39 711.102 1746.56C711.8 1741.74 713.647 1737.16 716.489 1733.2C719.331 1729.25 723.084 1726.03 727.43 1723.83C731.776 1721.63 736.589 1720.51 741.46 1720.56L992.787 1723.18C997.57 1723.23 1002.27 1724.41 1006.51 1726.62C1010.75 1728.83 1014.41 1732.01 1017.19 1735.91C1019.96 1739.8 1021.78 1744.3 1022.49 1749.03C1023.2 1753.76 1022.78 1758.59 1021.27 1763.12L985.491 1870.44L1061.38 2448.14C1061.39 2478.5 939.889 2486.54 868.097 2486.54Z" fill="#F2F2F2"/>
<path d="M847.618 2405.22H724.852V2412.12H847.618V2405.22Z" fill="#CCCCCC"/>
<path d="M847.618 2363.81H724.852V2370.71H847.618V2363.81Z" fill="#CCCCCC"/>
<path d="M847.618 2322.39H724.852V2329.29H847.618V2322.39Z" fill="#CCCCCC"/>
<path d="M847.618 2280.97H724.852V2287.88H847.618V2280.97Z" fill="#CCCCCC"/>
<path d="M847.618 2239.56H724.852V2246.46H847.618V2239.56Z" fill="#CCCCCC"/>
<path d="M1684.42 2529.47H1449.7V2136.02H1684.42C1697.23 2136.02 1709.53 2130.93 1718.59 2121.87C1727.65 2112.81 1732.74 2100.52 1732.74 2087.7C1732.74 2074.89 1727.65 2062.6 1718.59 2053.53C1709.53 2044.47 1697.23 2039.38 1684.42 2039.38H48.3234C35.5072 2039.38 23.216 2044.47 14.1536 2053.53C5.0912 2062.6 -3.8147e-05 2074.89 -3.8147e-05 2087.7C-3.8147e-05 2100.52 5.0912 2112.81 14.1536 2121.87C23.216 2130.93 35.5072 2136.02 48.3234 2136.02H248.521V2529.47H48.3234C35.5072 2529.47 23.216 2534.56 14.1536 2543.62C5.0912 2552.68 -3.8147e-05 2564.97 -3.8147e-05 2577.79C-3.8147e-05 2590.6 5.0912 2602.89 14.1536 2611.95C23.216 2621.02 35.5072 2626.11 48.3234 2626.11H1684.42C1690.77 2626.11 1697.06 2624.87 1702.93 2622.44C1708.8 2620.02 1714.13 2616.46 1718.62 2611.97C1723.12 2607.49 1726.68 2602.16 1729.11 2596.29C1731.54 2590.42 1732.79 2584.14 1732.79 2577.79C1732.79 2571.44 1731.54 2565.15 1729.11 2559.29C1726.68 2553.42 1723.12 2548.09 1718.62 2543.6C1714.13 2539.12 1708.8 2535.56 1702.93 2533.13C1697.06 2530.71 1690.77 2529.46 1684.42 2529.47ZM345.168 2529.47V2136.02H1353.06V2529.47H345.168Z" fill="#CCCCCC"/>
<path d="M1646.41 3038.89C1526.36 3038.89 1414.39 3031.13 1331.14 3017.05C1228.44 2999.68 1178.52 2974.44 1178.52 2939.89L1178.57 2938.8L1358.83 1566.38L1268.58 1307.7C1264.25 1295.53 1262.96 1282.49 1264.81 1269.71C1266.65 1256.92 1271.59 1244.78 1279.19 1234.33C1286.62 1223.73 1296.55 1215.12 1308.1 1209.28C1319.66 1203.43 1332.48 1200.54 1345.42 1200.85L1943.03 1207.07C1955.69 1207.2 1968.15 1210.32 1979.38 1216.18C1990.61 1222.04 2000.3 1230.47 2007.65 1240.79C2015 1251.1 2019.82 1263.01 2021.69 1275.53C2023.57 1288.06 2022.46 1300.85 2018.46 1312.87L1933.98 1566.28L2114.27 2938.82V2939.35C2114.29 2976.6 2057.76 3003.05 1941.47 3020.22C1827.23 3037.07 1697.07 3038.89 1646.41 3038.89Z" fill="white"/>
<path d="M1646.41 3038.89C1526.36 3038.89 1414.39 3031.13 1331.14 3017.05C1228.44 2999.68 1178.52 2974.44 1178.52 2939.89L1178.57 2938.8L1358.83 1566.38L1268.58 1307.7C1264.25 1295.53 1262.96 1282.49 1264.81 1269.71C1266.65 1256.92 1271.59 1244.78 1279.19 1234.33C1286.62 1223.73 1296.55 1215.12 1308.1 1209.28C1319.66 1203.43 1332.48 1200.54 1345.42 1200.85L1943.03 1207.07C1955.69 1207.2 1968.15 1210.32 1979.38 1216.18C1990.61 1222.04 2000.3 1230.47 2007.65 1240.79C2015 1251.1 2019.82 1263.01 2021.69 1275.53C2023.57 1288.06 2022.46 1300.85 2018.46 1312.87L1933.98 1566.28L2114.27 2938.82V2939.35C2114.29 2976.6 2057.76 3003.05 1941.47 3020.22C1827.23 3037.07 1697.07 3038.89 1646.41 3038.89ZM1343.77 1217.25C1333.71 1217.23 1323.8 1219.65 1314.88 1224.3C1305.96 1228.94 1298.29 1235.67 1292.53 1243.91C1286.48 1252.22 1282.55 1261.88 1281.08 1272.06C1279.61 1282.23 1280.64 1292.61 1284.09 1302.29L1375.62 1564.65L1375.36 1566.58L1194.9 2940.42C1194.94 2953.88 1212.99 2980.42 1333.88 3000.86C1416.26 3014.8 1527.24 3022.48 1646.41 3022.48C1751.15 3022.48 1860.56 3015.56 1939.07 3003.98C2039.37 2989.18 2097.15 2965.82 2097.84 2939.85L1917.21 1564.68L2002.88 1307.68C2006.07 1298.12 2006.95 1287.94 2005.46 1277.97C2003.96 1268 2000.13 1258.53 1994.28 1250.32C1988.43 1242.11 1980.72 1235.4 1971.79 1230.74C1962.85 1226.08 1952.94 1223.59 1942.86 1223.48L1345.16 1217.26C1344.7 1217.25 1344.23 1217.25 1343.77 1217.25Z" fill="#3F3D56"/>
<path opacity="0.5" d="M1987.07 2771.97H1305.75L1413.76 2041.72L1416.7 2021.59L1461.69 1717.58C1464.44 1699.04 1485.79 1713.44 1500.89 1702.32C1594.62 1633.31 1689.47 1631.3 1785.15 1697.83C1799.94 1708.11 1820.37 1696.07 1823.12 1713.87L1870.39 2018.8L1874.96 2048.3L1987.07 2771.97Z" fill="#0275D8"/>
<path d="M1902.98 2874.22H1389.11C1375.64 2874.22 1362.33 2871.32 1350.08 2865.71C1337.83 2860.1 1326.93 2851.92 1318.13 2841.72C1309.33 2831.53 1302.83 2819.55 1299.08 2806.62C1295.32 2793.68 1294.4 2780.09 1296.37 2766.76L1446.5 1751.62C1447.28 1746.43 1449.41 1741.53 1452.69 1737.43C1455.96 1733.33 1460.26 1730.16 1465.15 1728.26C1470.04 1726.35 1475.35 1725.77 1480.53 1726.58C1485.72 1727.38 1490.6 1729.54 1494.69 1732.84C1586.19 1806.13 1685.91 1804.48 1791.09 1727.95C1795.17 1724.97 1799.95 1723.1 1804.96 1722.52C1809.98 1721.93 1815.07 1722.66 1819.72 1724.62C1824.47 1726.57 1828.64 1729.72 1831.81 1733.76C1834.98 1737.8 1837.06 1742.59 1837.83 1747.66L1995.63 2766.13C1997.7 2779.49 1996.86 2793.15 1993.15 2806.15C1989.45 2819.16 1982.97 2831.21 1974.17 2841.48C1965.37 2851.75 1954.45 2859.99 1942.16 2865.64C1929.87 2871.3 1916.51 2874.22 1902.98 2874.22L1902.98 2874.22Z" fill="#0275D8"/>
<path d="M1696.21 2755.21H1404.26V2771.63H1696.21V2755.21Z" fill="white"/>
<path d="M1696.21 2656.72H1404.26V2673.13H1696.21V2656.72Z" fill="white"/>
<path d="M1696.21 2558.22H1404.26V2574.64H1696.21V2558.22Z" fill="white"/>
<path d="M1696.21 2459.73H1404.26V2476.15H1696.21V2459.73Z" fill="white"/>
<path d="M1696.21 2361.24H1404.26V2377.65H1696.21V2361.24Z" fill="white"/>
<path d="M1888.73 2102.86C1866.08 2125.34 1838.84 2142.66 1808.88 2153.62C1778.91 2164.59 1746.92 2168.94 1715.12 2166.38C1678.83 2163.1 1645.75 2149.56 1613.9 2132.49C1580.99 2114.84 1549.14 2093.75 1512.69 2083.9C1480.76 2075.28 1442.92 2074.13 1415.5 2095.47C1413.26 2097.21 1410.52 2098.18 1407.69 2098.26C1404.85 2098.33 1402.07 2097.5 1399.74 2095.88L1402.86 2074.54C1433.4 2053.2 1470.5 2049.92 1506.86 2057.22C1580.08 2072 1635.66 2132.57 1710.68 2141.27C1743.05 2144.91 1775.81 2140.46 1806.03 2128.31C1836.24 2116.16 1862.97 2096.7 1883.8 2071.67L1883.89 2071.58L1888.73 2102.86Z" fill="white"/>
<path d="M3579 3039.32C3579 3040.2 3578.83 3041.07 3578.5 3041.88C3578.16 3042.69 3577.67 3043.43 3577.05 3044.05C3576.43 3044.67 3575.69 3045.16 3574.88 3045.5C3574.07 3045.83 3573.2 3046 3572.32 3046H7.11781C5.34664 3046 3.64799 3045.3 2.39558 3044.04C1.14318 3042.79 0.439594 3041.09 0.439594 3039.32C0.439594 3037.55 1.14318 3035.85 2.39558 3034.6C3.64799 3033.35 5.34664 3032.65 7.11781 3032.65H3572.32C3573.2 3032.64 3574.07 3032.81 3574.88 3033.15C3575.69 3033.48 3576.43 3033.97 3577.05 3034.59C3577.67 3035.22 3578.16 3035.95 3578.5 3036.76C3578.83 3037.58 3579 3038.44 3579 3039.32Z" fill="#CCCCCC"/>
<path d="M2838.25 512.35L3030.13 495.74L3210.02 577.963L3311.04 1975.19L2914.62 1791.88L2744.54 1838.93L2838.25 512.35Z" fill="#F2F2F2"/>
<path d="M1891.22 510.627C1909.82 510.627 1924.89 495.554 1924.89 476.959C1924.89 458.365 1909.82 443.291 1891.22 443.291C1872.62 443.291 1857.55 458.365 1857.55 476.959C1857.55 495.554 1872.62 510.627 1891.22 510.627Z" fill="#0275D8"/>
<path d="M1835.1 920.256C1853.7 920.256 1868.77 905.182 1868.77 886.588C1868.77 867.994 1853.7 852.92 1835.1 852.92C1816.51 852.92 1801.43 867.994 1801.43 886.588C1801.43 905.182 1816.51 920.256 1835.1 920.256Z" fill="#0275D8"/>
<path d="M1655.52 1161.54C1674.12 1161.54 1689.19 1146.47 1689.19 1127.88C1689.19 1109.28 1674.12 1094.21 1655.52 1094.21C1636.92 1094.21 1621.85 1109.28 1621.85 1127.88C1621.85 1146.47 1636.92 1161.54 1655.52 1161.54Z" fill="#0275D8"/>
<path d="M2496.11 1422.4V1060.98C2496.11 1053.66 2499.02 1046.65 2504.2 1041.48C2509.37 1036.3 2516.38 1033.39 2523.7 1033.39H2796.68C2804 1033.39 2811.01 1036.3 2816.19 1041.48C2821.36 1046.65 2824.27 1053.66 2824.28 1060.98V1422.4C2824.27 1429.72 2821.36 1436.73 2816.19 1441.9C2811.01 1447.08 2804 1449.98 2796.68 1449.99H2523.7C2516.38 1449.98 2509.37 1447.08 2504.2 1441.9C2499.02 1436.73 2496.11 1429.72 2496.11 1422.4V1422.4Z" fill="#E6E6E6"/>
<path d="M2517.05 1313.24V1080.88C2517.05 1074.03 2519.78 1067.46 2524.62 1062.62C2529.47 1057.77 2536.04 1055.05 2542.89 1055.04H2777.5C2784.35 1055.05 2790.92 1057.77 2795.76 1062.62C2800.61 1067.46 2803.33 1074.03 2803.34 1080.88V1402.5C2803.33 1409.35 2800.61 1415.92 2795.76 1420.76C2790.92 1425.61 2784.35 1428.33 2777.5 1428.34H2632.16C2601.64 1428.3 2572.38 1416.17 2550.8 1394.59C2529.22 1373.01 2517.08 1343.75 2517.05 1313.24V1313.24Z" fill="white"/>
<path d="M2555.03 1145.71C2555.04 1139.02 2557.7 1132.6 2562.44 1127.86C2567.17 1123.13 2573.59 1120.47 2580.29 1120.46H2743.03C2749.73 1120.46 2756.15 1123.12 2760.89 1127.86C2765.62 1132.59 2768.28 1139.01 2768.28 1145.71C2768.28 1152.41 2765.62 1158.83 2760.89 1163.57C2756.15 1168.3 2749.73 1170.96 2743.03 1170.96H2580.29C2573.59 1170.96 2567.17 1168.29 2562.44 1163.56C2557.7 1158.82 2555.04 1152.41 2555.03 1145.71V1145.71Z" fill="#E6E6E6"/>
<path d="M2555.03 1224.27C2555.04 1217.58 2557.7 1211.16 2562.44 1206.42C2567.17 1201.69 2573.59 1199.03 2580.29 1199.02H2743.03C2749.73 1199.02 2756.15 1201.68 2760.89 1206.42C2765.62 1211.15 2768.28 1217.57 2768.28 1224.27C2768.28 1230.97 2765.62 1237.39 2760.89 1242.13C2756.15 1246.86 2749.73 1249.52 2743.03 1249.52H2580.29C2573.59 1249.51 2567.17 1246.85 2562.44 1242.12C2557.7 1237.38 2555.04 1230.97 2555.03 1224.27V1224.27Z" fill="#E6E6E6"/>
<path d="M2555.03 1302.83C2555.04 1296.13 2557.7 1289.72 2562.44 1284.98C2567.17 1280.25 2573.59 1277.59 2580.29 1277.58H2743.03C2749.73 1277.58 2756.15 1280.24 2760.89 1284.97C2765.62 1289.71 2768.28 1296.13 2768.28 1302.83C2768.28 1309.53 2765.62 1315.95 2760.89 1320.68C2756.15 1325.42 2749.73 1328.08 2743.03 1328.08H2580.29C2573.59 1328.07 2567.17 1325.41 2562.44 1320.68C2557.7 1315.94 2555.04 1309.52 2555.03 1302.83V1302.83Z" fill="#E6E6E6"/>
<path d="M2718.49 1484.76C2726.17 1481.58 2733.07 1476.76 2738.68 1470.63C2744.3 1464.51 2748.51 1457.22 2751.01 1449.29C2753.5 1441.37 2754.23 1432.99 2753.14 1424.75C2752.05 1416.51 2749.17 1408.61 2744.69 1401.6L2942.62 1221.81L3012.06 953.243L2888.83 942.991L2851.16 1153.74L2662.42 1386.03C2651.15 1394.33 2643.31 1406.47 2640.4 1420.16C2637.48 1433.85 2639.69 1448.13 2646.6 1460.3C2653.51 1472.47 2664.65 1481.68 2677.9 1486.19C2691.15 1490.69 2705.59 1490.18 2718.49 1484.75V1484.76Z" fill="#FFB6B6"/>
<path d="M3031.05 710.7C3031.05 710.7 3061.08 711.145 3047.56 773.327C3036.72 823.109 2995.63 1103.26 2962.84 1165.93C2970.34 1172.41 2975.48 1181.2 2977.44 1190.92C2979.4 1200.64 2978.07 1210.73 2973.66 1219.61L2836.58 1166.43C2824.63 1135.34 2844.67 1125.68 2857.45 1122.89L2854.94 1025.36L2874.59 776.75L3009.34 709.993L3031.05 710.7Z" fill="#F2F2F2"/>
<path d="M3071.42 250.469C3065.03 297.099 3040.38 339.284 3002.9 367.754C2965.42 396.224 2918.16 408.651 2871.52 402.304C2824.88 395.957 2782.67 371.355 2754.16 333.903C2725.64 296.452 2713.17 249.216 2719.47 202.573L2719.81 200.052C2727.17 154.036 2752.33 112.756 2789.85 85.1165C2827.38 57.4774 2874.26 45.6946 2920.4 52.3097C2966.53 58.9248 3008.21 83.4077 3036.46 120.477C3064.7 157.547 3077.24 204.231 3071.37 250.461L3071.42 250.469Z" fill="#FFB8B8"/>
<path d="M3026.22 341.936C3035.34 323.411 3044.71 303.523 3042.15 283.035C3039.58 262.547 3019.49 242.964 2999.76 249.053C2987.96 252.694 2979.04 264.344 2966.71 264.94C2949.74 265.761 2940.01 246.341 2934.73 230.194L2913.21 164.434C2892.56 180.533 2868.6 191.873 2843.05 197.645C2817.5 203.417 2791 203.48 2765.42 197.827C2745.45 193.261 2725.27 184.358 2713.55 167.551C2701.84 150.744 2701.91 124.673 2717.98 111.964C2725.86 105.732 2736.35 103.364 2743.88 96.7148C2748.55 92.5898 2751.77 87.0705 2753.06 80.9739C2754.35 74.8773 2753.64 68.5273 2751.04 62.8634C2748.44 57.1996 2744.09 52.5229 2738.62 49.5254C2733.16 46.528 2726.88 45.3689 2720.7 46.22L2774.87 39.4507L2758.73 10.2641C2770.36 19.4304 2786.55 20.6632 2801.12 18.0394C2815.69 15.4156 2829.42 9.41581 2843.67 5.41463C2912.12 -13.7938 2991.66 19.6042 3025.87 81.9128C3039.2 77.4623 3053.57 77.1665 3067.07 81.0646C3080.57 84.9627 3092.57 92.8708 3101.47 103.741C3115.97 122.143 3119.92 146.701 3120.48 170.122C3121.53 216.302 3111.46 262.059 3091.12 303.531C3085.28 316.704 3076.9 328.593 3066.45 338.515C3061.19 343.434 3054.92 347.143 3048.07 349.382C3041.23 351.62 3033.98 352.334 3026.83 351.473" fill="#2F2E41"/>
</g>
<defs>
<clipPath id="clip0_204_56">
<rect width="3579" height="3046" fill="white"/>
</clipPath>
</defs>
</svg>
